<svg xmlns="http://www.w3.org/2000/svg" viewBox="0 0 256 256" role="img" aria-label="Iris">
  <defs><linearGradient id="bg" x1="0" y1="0" x2="1" y2="1"><stop offset="0" stop-color="#102033"/><stop offset="1" stop-color="#050b16"/></linearGradient><radialGradient id="a" cx="50%" cy="35%" r="62%"><stop offset="0" stop-color="#9ca3ff" stop-opacity="0.75"/><stop offset="1" stop-color="#9ca3ff" stop-opacity="0"/></radialGradient></defs>
  <rect x="10" y="10" width="236" height="236" rx="34" fill="url(#bg)"/>
  <rect x="18" y="18" width="220" height="220" rx="28" fill="url(#a)"/>
  <ellipse cx="128" cy="205" rx="72" ry="15" fill="#020617" opacity="0.62"/>
  <path d="M74 188 L98 112 L158 112 L182 188 Q128 214 74 188Z" fill="#9ca3ff" stroke="#e0f2fe" stroke-width="5" stroke-linejoin="round"/>
  <circle cx="128" cy="76" r="34" fill="#f2bf8d" stroke="#111827" stroke-width="6"/>
  <path d="M86 70 C102 34 154 31 170 70 C142 56 116 54 86 70Z" fill="#1f2937"/>
  <circle cx="116" cy="78" r="3" fill="#0f172a"/><circle cx="140" cy="78" r="3" fill="#0f172a"/>
  <path d="M112 94 Q128 103 144 94" fill="none" stroke="#7c2d12" stroke-width="4" stroke-linecap="round" opacity="0.65"/>
  <path d="M70 156 C96 140 160 140 186 156" fill="none" stroke="#f8fafc" stroke-width="7" stroke-linecap="round" opacity="0.88"/>
  <rect x="10" y="10" width="236" height="236" rx="34" fill="none" stroke="#9ca3ff" stroke-width="5"/>
  <text x="128" y="235" text-anchor="middle" font-family="Georgia, serif" font-size="21" fill="#eef6ff" font-weight="700">Iris</text>
</svg>
